inDegrees=no
num_controls=7
num_derivatives=13
num_iterations=121
num_multipliers=7
num_parameters=0
num_slacks=7
num_states=26
objective=0.476644
objective_accelerations=0.044340
objective_balance=0.003604
objective_effort=0.040553
objective_height=0.382488
objective_ligament=0.005661
solver_duration=1675.033384
status=Solve_Succeeded
success=true
DataType=double
version=3
OpenSimVersion=4.5
endheader
time	/jointset/ground_pelvis/pelvis_tilt/value	/jointset/ground_pelvis/pelvis_tx/value	/jointset/ground_pelvis/pelvis_ty/value	/jointset/hip_l/hip_flexion_l/value	/jointset/hip_l/hip_adduction_l/value	/jointset/hip_l/hip_rotation_l/value	/jointset/back/lumbar_extension/value	/jointset/patellofemoral_l/patellar_flexion_l/value	/jointset/knee_l/knee_flexion_l/value	/jointset/knee_l/knee_adduction_l/value	/jointset/knee_l/knee_rotation_l/value	/jointset/ankle_l/ankle_angle_l/value	/jointset/subtalar_l/subtalar_angle_l/value	/jointset/ground_pelvis/pelvis_tilt/speed	/jointset/ground_pelvis/pelvis_tx/speed	/jointset/ground_pelvis/pelvis_ty/speed	/jointset/hip_l/hip_flexion_l/speed	/jointset/hip_l/hip_adduction_l/speed	/jointset/hip_l/hip_rotation_l/speed	/jointset/back/lumbar_extension/speed	/jointset/patellofemoral_l/patellar_flexion_l/speed	/jointset/knee_l/knee_flexion_l/speed	/jointset/knee_l/knee_adduction_l/speed	/jointset/knee_l/knee_rotation_l/speed	/jointset/ankle_l/ankle_angle_l/speed	/jointset/subtalar_l/subtalar_angle_l/speed	/forceset/tau_hip_flexion_l	/forceset/tau_hip_adduction_l	/forceset/tau_hip_rotation_l	/forceset/tau_knee_flexion_l	/forceset/tau_ankle_angle_l	/forceset/tau_subtalar_angle_l	/forceset/tau_lumbar_extension	lambda_cid13_p0	lambda_cid13_p1	lambda_cid13_p2	lambda_cid13_p3	lambda_cid13_p4	lambda_cid13_p5	lambda_cid14_p0	/jointset/ground_pelvis/pelvis_tilt/accel	/jointset/ground_pelvis/pelvis_tx/accel	/jointset/ground_pelvis/pelvis_ty/accel	/jointset/hip_l/hip_flexion_l/accel	/jointset/hip_l/hip_adduction_l/accel	/jointset/hip_l/hip_rotation_l/accel	/jointset/back/lumbar_extension/accel	/jointset/patellofemoral_l/patellar_flexion_l/accel	/jointset/knee_l/knee_flexion_l/accel	/jointset/knee_l/knee_adduction_l/accel	/jointset/knee_l/knee_rotation_l/accel	/jointset/ankle_l/ankle_angle_l/accel	/jointset/subtalar_l/subtalar_angle_l/accel	gamma_cid13_p0	gamma_cid13_p1	gamma_cid13_p2	gamma_cid13_p3	gamma_cid13_p4	gamma_cid13_p5	gamma_cid14_p0
0.5	-0.09240365389097295	-0.04122504644331262	0.8061914851911406	0.9302601647762734	-0.3303745532688966	-0.07633790973544255	-0.7943339649701709	0.9257579798929797	0.9257579798930626	-0.1047021535982233	-0.1744968791824008	0.1521702168320259	0.01363039409011633	-0.1289614255638193	-0.1562550829332122	-0.4198409683366464	1.605895243427042	-0.03346501418978778	0.5778044682256314	-0.8281785303303159	1.794261471987079	1.794261471987018	0.1357098585699975	0.0001189287676716579	0.4384164901255216	0.1127170387060058	-0.2720290247641148	0.01827260049215099	-0.004498317443020627	-0.2474135704685187	0.08107260868098772	0.04844711812573222	0.328886596787449	-17.9302332753234	-19.68908029113679	4.726940416321877	-8.745750479235573	-701.560582245867	-77.87093532924195	-9.576043401245947	0.2626457611391499	0.666937839888902	-0.204559988363105	-1.465275323108229	0.3268492586891683	-0.5027809707264222	1.964772186204584	-1.416406920586451	-1.416406920586452	-0.2475543559463291	-0.05063927028788384	-0.2869622281480223	0.3259275098001236	-2.573672291246349e-07	-1.447660110191161e-07	1.531654694844081e-06	1.451367357353027e-07	-2.804699004366997e-07	-9.007892499761268e-08	-2.190379883888551e-07
0.51	-0.09367977359328032	-0.04275425291890765	0.8019838270198044	0.9462432442275202	-0.3306934277193961	-0.07058373355114662	-0.8025169505093397	0.943626846441465	0.9436268464415138	-0.1033598386191846	-0.1744974828383112	0.1565389823368795	0.01477286759873996	-0.1262274011406924	-0.1495877708264424	-0.4215904927170164	1.590480882865815	-0.03029245503078593	0.573003155229266	-0.8083601251215514	1.779244241865305	1.779244241865316	0.1327613417271149	-0.0001785702418830452	0.4352656888704837	0.1157790472493152	-0.2781839358194632	0.01865950008192015	-0.004621849354058421	-0.2511305293650878	0.07996885450483587	0.04843926004879169	0.335045263384203	-18.55285597003569	-19.52022343599418	4.635565825406911	-8.464142972660998	-706.1602812783254	-77.67663628338671	-8.847449100957123	0.2840238052943522	0.6664230718419561	-0.1451769426978089	-1.615512713191782	0.3148650409748712	-0.4731436386214577	1.999142545487077	-1.584478064963922	-1.584478064953236	-0.3172621334843717	-0.009846143692413345	-0.3397754374974162	0.2963881757358167	-2.474970288696237e-07	-1.571168595187825e-07	1.476209985054519e-06	1.369793488869165e-07	-2.668094995497401e-07	-6.707281439192796e-08	-2.144114149497969e-07
0.52	-0.09492750444687206	-0.04421682723828077	0.7977616679487005	0.9620649808150501	-0.3309800954190055	-0.06487843793173013	-0.8104999984249643	0.9613375212873344	0.9613375212873481	-0.1020467611655772	-0.1744991696697994	0.1608741125565196	0.0159459713226248	-0.1232836558217826	-0.1429286516888307	-0.4227411482903318	1.573626670682122	-0.02702366401301777	0.5680283552517074	-0.7881910056218112	1.762623131463892	1.762623131463974	0.1298623534832277	-9.770634756392217e-05	0.4316894330828127	0.1188430817582033	-0.2843388468747934	0.01904639967168183	-0.004745381265024089	-0.2548474882616548	0.07886510032867997	0.04843140197184066	0.3412039299809744	-19.17742350379276	-19.35113925356939	4.544285417063704	-8.225630030636399	-710.8210445105225	-77.53384765221664	-8.121279184867699	0.3045899402957511	0.6652992460572831	-0.08478622695221553	-1.753245647601243	0.346095630442422	-0.537478366965121	2.034915044399708	-1.737182976514057	-1.73718297651406	-0.2376486361472476	0.02503331048687357	-0.372053134674622	0.3263327029158766	-2.445438796856266e-07	-2.372514054052367e-07	1.426890153748221e-06	1.210589691633222e-07	-2.577181950873162e-07	-5.602588730670474e-08	-2.195901671422388e-07
0.53	-0.09614513429244706	-0.04561288824113142	0.7935309420941069	0.977711547452256	-0.3312338027241786	-0.05922490180457684	-0.8182792457324474	0.9788743019213282	0.9788743019213308	-0.1007618569249643	-0.1744992785679623	0.1651714105785254	0.01714951016565317	-0.1202450692956124	-0.1362883156514319	-0.4233096707083732	1.555502320730286	-0.02371743677435304	0.5625616271055922	-0.7675638506872428	1.744495650021348	1.744495650021419	0.1271779170822436	5.796873192992227e-05	0.4277057143179768	0.1218493698225585	-0.2902474523757185	0.01922297818221511	-0.004838587114252787	-0.2586848673997684	0.07786867257416487	0.04833007258411515	0.347165908106759	-19.76497652111242	-19.14276726709269	4.440830010506748	-7.963879613721093	-715.3584054527231	-77.35542890673753	-7.407121976070234	0.303057027846853	0.6627083064276089	-0.02878304983657437	-1.86970936873366	0.3227640213712705	-0.5690598977157656	2.090806496115943	-1.886088062990729	-1.886088062992423	-0.274957012053523	0.008418682752750864	-0.4212047069243103	0.2853597126063979	-2.347736196037386e-07	-2.537206295292124e-07	1.374811774719569e-06	1.126088896516742e-07	-2.446376613828371e-07	-3.19479254731693e-08	-2.159277720628371e-07
0.54	-0.09733246546894232	-0.04694268437883877	0.7892973514552122	0.993171334650001	-0.3314544722068005	-0.05362959093074191	-0.8258493833349573	0.9962226962739212	0.9962226962739145	-0.09950202022235456	-0.1744983139001205	0.1694269367209768	0.01838262846020756	-0.1172239220066875	-0.1296756786601706	-0.4233141051506703	1.536270782788101	-0.02041609950398571	0.5563833045882383	-0.7463690646274653	1.72494587518416	1.724945875184219	0.1248488458820825	0.0001170068543092484	0.4233350571716875	0.1247589720633572	-0.2961560578766119	0.01939955669276736	-0.004931792963425819	-0.2625222465378761	0.07687224481965232	0.04822874319641021	0.3531278862325671	-20.35399218522302	-18.93749792406827	4.341707180704628	-7.750662055772271	-719.9456388085152	-77.23289209238392	-6.727030559605843	0.3011020928467064	0.659759436829804	0.02803136819661696	-1.974683245671163	0.3451176367829307	-0.6797972412128882	2.148441269441531	-2.021641655442997	-2.021641655442973	-0.1665755959826523	0.005705919063969978	-0.4494408109652668	0.3069955382046	-2.174610240603544e-07	-1.997516253202323e-07	1.31968138544491e-06	1.124238231404775e-07	-2.271435123467224e-07	6.547351401052176e-09	-2.024836821294807e-07
